<svg width="27" height="27" viewBox="0 0 27 27" fill="none" xmlns="http://www.w3.org/2000/svg">
<g id="tabler:arrow-wave-right-down">
<g id="Group">
<path id="Vector" d="M8.43382 18.5475L9.75968 22.6664L13.8786 21.3406" stroke="black" stroke-width="1.81132" stroke-linecap="round" stroke-linejoin="round"/>
<path id="Vector_2" d="M5.85255 3.46796C4.82439 4.80693 4.58115 6.69555 5.11895 8.2498C5.5888 9.82592 6.88808 11.218 8.50426 11.7058C10.1204 12.1936 11.4197 13.5856 11.8896 15.1618C12.4274 16.716 11.8542 18.5824 11.156 19.9436L9.75944 22.666" stroke="black" stroke-width="1.81132" stroke-linecap="round" stroke-linejoin="round"/>
</g>
<g id="Group_2">
<path id="Vector_3" d="M17.0881 18.5475L18.414 22.6664L22.5329 21.3406" stroke="black" stroke-width="1.81132" stroke-linecap="round" stroke-linejoin="round"/>
<path id="Vector_4" d="M14.5068 3.46796C13.4787 4.80693 13.2354 6.69555 13.7732 8.2498C14.2431 9.82592 15.5424 11.218 17.1586 11.7058C18.7747 12.1936 20.074 13.5856 20.5439 15.1618C21.0817 16.716 20.5085 18.5824 19.8103 19.9436L18.4137 22.666" stroke="black" stroke-width="1.81132" stroke-linecap="round" stroke-linejoin="round"/>
</g>
</g>
</svg>
