<svg width="25" height="25" viewBox="0 0 25 25" fill="none" xmlns="http://www.w3.org/2000/svg">
<g id="uil:raindrops-alt">
<path id="Vector" d="M9.15026 8.44002C9.15026 5.67273 6.55403 3.90166 6.44334 3.83122C6.27693 3.71874 6.08067 3.65863 5.87982 3.65863C5.67896 3.65863 5.4827 3.71874 5.31629 3.83122C5.2056 3.91172 2.60938 5.67273 2.60938 8.44002C2.60938 9.3074 2.95394 10.1392 3.56726 10.7526C4.18059 11.3659 5.01244 11.7105 5.87982 11.7105C6.74719 11.7105 7.57904 11.3659 8.19237 10.7526C8.80569 10.1392 9.15026 9.3074 9.15026 8.44002ZM5.87982 9.69789C5.54621 9.69789 5.22627 9.56536 4.99037 9.32947C4.75448 9.09357 4.62195 8.77363 4.62195 8.44002C4.70476 7.48594 5.15594 6.60163 5.87982 5.97462C6.60801 6.59824 7.06015 7.48443 7.13768 8.44002C7.13768 8.77363 7.00515 9.09357 6.76926 9.32947C6.53336 9.56536 6.21342 9.69789 5.87982 9.69789ZM11.9779 10.8752C11.8115 10.7628 11.6153 10.7027 11.4144 10.7027C11.2136 10.7027 11.0173 10.7628 10.8509 10.8752C10.6798 10.996 6.63453 13.7935 6.63453 17.9998C6.63453 19.2675 7.13812 20.4833 8.03453 21.3797C8.93093 22.2761 10.1467 22.7796 11.4144 22.7796C12.6821 22.7796 13.8979 22.2761 14.7943 21.3797C15.6907 20.4833 16.1943 19.2675 16.1943 17.9998C16.1943 13.723 12.1691 10.9859 11.9779 10.8752ZM11.4144 20.7671C11.051 20.7671 10.6912 20.6955 10.3554 20.5564C10.0197 20.4174 9.7146 20.2135 9.45763 19.9565C9.20067 19.6996 8.99683 19.3945 8.85776 19.0588C8.71869 18.723 8.64711 18.3632 8.64711 17.9998C8.64711 15.6752 10.4685 13.8035 11.4245 12.9683C12.3704 13.7633 14.1817 15.6149 14.1817 17.9998C14.1817 18.3632 14.1101 18.723 13.9711 19.0588C13.832 19.3945 13.6281 19.6996 13.3712 19.9565C13.1142 20.2135 12.8091 20.4174 12.4734 20.5564C12.1377 20.6955 11.7778 20.7671 11.4144 20.7671ZM18.2672 2.82493C18.1008 2.71245 17.9046 2.65234 17.7037 2.65234C17.5029 2.65234 17.3066 2.71245 17.1402 2.82493C16.9993 2.92556 13.6786 5.2199 13.6786 8.6916C13.6786 9.75913 14.1026 10.783 14.8575 11.5378C15.6124 12.2927 16.6362 12.7168 17.7037 12.7168C18.7713 12.7168 19.7951 12.2927 20.5499 11.5378C21.3048 10.783 21.7289 9.75913 21.7289 8.6916C21.7289 5.17965 18.4081 2.9155 18.2672 2.82493ZM17.7037 10.7042C17.1699 10.7042 16.658 10.4921 16.2806 10.1147C15.9032 9.73727 15.6911 9.22537 15.6911 8.6916C15.7601 7.96497 15.9737 7.25948 16.3193 6.61661C16.6649 5.97374 17.1356 5.40648 17.7037 4.9482C18.2739 5.40453 18.7461 5.97131 19.0919 6.61456C19.4378 7.25781 19.6501 7.96428 19.7163 8.6916C19.7163 9.22537 19.5043 9.73727 19.1268 10.1147C18.7494 10.4921 18.2375 10.7042 17.7037 10.7042Z" fill="black"/>
</g>
</svg>
